<?xml version="1.0" standalone="no"?>
<!DOCTYPE svg PUBLIC "-//W3C//DTD SVG 20010904//EN"
 "http://www.w3.org/TR/2001/REC-SVG-20010904/DTD/svg10.dtd">
<svg version="1.0" xmlns="http://www.w3.org/2000/svg"
 width="512.000000pt" height="512.000000pt" viewBox="0 0 512.000000 512.000000"
 preserveAspectRatio="xMidYMid meet">
<metadata>
Created by potrace 1.11, written by Peter Selinger 2001-2013
</metadata>
<g transform="translate(0.000000,512.000000) scale(0.100000,-0.100000)"
fill="#000000" stroke="none">
<path d="M2898 5095 c-2 -2 -19 -6 -39 -9 -20 -3 -68 -17 -105 -31 -38 -15
-78 -29 -89 -32 -10 -4 -46 -22 -80 -41 -33 -19 -75 -43 -94 -54 -18 -10 -40
-25 -48 -33 -8 -8 -22 -20 -31 -27 -16 -13 -86 -88 -127 -139 -61 -74 -179
-311 -174 -349 0 -3 -4 -16 -9 -30 -5 -14 -13 -48 -18 -75 -10 -61 -10 -307 0
-355 20 -96 27 -127 35 -145 5 -11 19 -47 31 -80 30 -77 95 -177 154 -237 50
-51 59 -88 32 -139 -7 -15 -14 -37 -14 -50 0 -13 -10 -53 -21 -88 -34 -104
-45 -243 -27 -361 3 -25 8 -61 11 -81 3 -20 14 -58 25 -84 47 -109 35 -150
-55 -194 -57 -28 -67 -37 -90 -86 -14 -30 -29 -55 -34 -55 -11 0 -32 -49 -37
-88 -3 -25 2 -38 20 -57 19 -19 23 -32 20 -62 -7 -73 -5 -188 5 -221 12 -39
62 -121 91 -147 16 -14 18 -26 14 -69 -3 -28 -12 -64 -19 -81 -7 -16 -27 -66
-45 -110 -79 -196 -116 -254 -206 -325 -27 -22 -153 -82 -284 -136 -74 -30
-230 -122 -310 -183 -163 -123 -370 -353 -370 -411 0 -9 8 -17 18 -17 32 -1
156 27 234 53 105 35 113 32 82 -30 -17 -35 -23 -58 -19 -78 4 -15 7 -28 8
-28 1 0 25 -8 52 -18 51 -18 125 -21 183 -8 19 5 38 4 43 -1 6 -6 13 -41 16
-79 3 -38 14 -85 23 -105 21 -40 95 -95 106 -78 5 8 8 8 13 0 9 -14 50 -23 65
-13 10 6 34 10 86 12 8 0 29 -2 46 -6 43 -8 81 17 79 53 -1 20 -13 35 -45 58
-60 42 -88 93 -86 156 3 56 4 58 42 65 16 3 38 8 49 11 11 4 22 8 25 8 3 1 12
4 20 8 34 13 92 29 94 25 2 -1 17 -25 35 -51 39 -57 63 -68 134 -62 96 8 146
27 254 98 85 56 113 80 113 100 0 24 18 31 81 29 70 -2 95 14 170 108 37 46
113 180 102 180 -3 0 2 9 12 20 10 11 15 20 10 20 -4 0 -3 6 3 12 24 31 96
268 116 383 3 17 10 57 16 90 6 33 12 74 14 90 5 38 17 124 22 150 3 11 7 36
10 55 4 19 8 42 9 50 2 8 4 19 4 24 1 4 8 6 16 3 8 -4 17 -2 20 4 4 5 10 7 14
5 4 -3 27 0 52 5 141 33 215 33 175 0 -8 -7 -34 -42 -57 -79 -24 -37 -47 -70
-51 -73 -20 -14 -39 -118 -43 -236 -3 -70 -7 -139 -10 -153 -3 -14 -7 -34 -9
-45 -9 -44 -68 -213 -92 -261 -14 -28 -40 -68 -59 -89 -19 -21 -35 -41 -35
-45 0 -4 -6 -13 -14 -19 -8 -6 -16 -25 -18 -41 -8 -51 44 -83 178 -110 66 -13
106 -36 179 -105 66 -62 107 -80 192 -84 12 -1 28 -7 35 -14 16 -16 155 -22
177 -8 15 10 7 81 -9 81 -5 0 -11 9 -15 19 -7 23 -27 33 -79 36 -21 2 -42 7
-46 12 -4 4 -35 60 -68 125 -33 64 -75 137 -95 162 -29 38 -34 52 -30 83 9 74
26 120 98 268 127 261 195 406 195 416 0 16 32 82 47 97 7 7 13 17 13 21 0 4
18 26 40 50 41 44 49 68 55 175 3 44 0 51 -36 87 -23 23 -55 42 -81 49 -24 7
-115 36 -203 66 -89 30 -168 54 -178 54 -12 0 -17 8 -17 30 0 35 -1 35 59 13
54 -19 87 -12 76 15 -3 9 -8 40 -11 67 -2 28 -6 68 -9 90 -3 22 -7 67 -10 99
-3 33 -8 76 -10 95 -19 141 -19 138 19 183 34 39 56 91 56 129 0 24 16 33 110
64 109 36 208 85 241 122 25 27 26 33 23 123 -2 91 -5 117 -20 185 -17 84 -27
109 -70 193 -39 74 -42 85 -31 110 6 15 14 29 18 32 9 8 46 80 63 123 42 105
60 202 60 327 1 193 -16 275 -87 420 -35 70 -59 102 -137 180 -137 136 -131
132 -300 208 -101 45 -248 88 -375 108 -27 5 -254 12 -257 9z"/>
<path d="M3565 300 c-3 -6 1 -7 9 -4 18 7 21 14 7 14 -6 0 -13 -4 -16 -10z"/>
<path d="M3703 265 c2 -27 -1 -30 -25 -30 -21 1 -24 -2 -16 -12 15 -18 35 -16
43 5 13 28 13 38 4 53 -6 9 -8 4 -6 -16z"/>
<path d="M3650 265 c0 -8 4 -15 10 -15 5 0 7 7 4 15 -4 8 -8 15 -10 15 -2 0
-4 -7 -4 -15z"/>
<path d="M3590 261 c0 -6 5 -11 11 -11 6 0 9 -7 5 -15 -3 -8 -1 -15 4 -15 15
0 12 26 -5 40 -10 9 -15 9 -15 1z"/>
<path d="M3565 220 c3 -5 11 -10 16 -10 6 0 7 5 4 10 -3 6 -11 10 -16 10 -6 0
-7 -4 -4 -10z"/>
<path d="M3683 152 c-1 -22 0 -24 9 -8 6 10 6 22 2 26 -5 5 -10 -3 -11 -18z"/>
<path d="M3870 157 c0 -9 4 -18 9 -21 5 -4 8 1 7 9 -3 21 -16 31 -16 12z"/>
<path d="M3636 142 c-3 -5 1 -9 9 -9 8 0 12 4 9 9 -3 4 -7 8 -9 8 -2 0 -6 -4
-9 -8z"/>
</g>
</svg>
